<svg width="320" height="240" xmlns="http://www.w3.org/2000/svg">

<text x="50" y="44.0" text-anchor="end" font-size="16">q0:</text>
<text x="50" y="94.0" text-anchor="end" font-size="16">q1:</text>
<text x="50" y="144.0" text-anchor="end" font-size="16">c0:</text>
<text x="50" y="194.0" text-anchor="end" font-size="16">c1:</text>
<line x1="60" y1="40.0" x2="260" y2="40.0" stroke="black" />
<line x1="60" y1="90.0" x2="260" y2="90.0" stroke="black" />
<line x1="60" y1="140.0" x2="260" y2="140.0" stroke="black" stroke-dasharray="5,5" />
<line x1="60" y1="190.0" x2="260" y2="190.0" stroke="black" stroke-dasharray="5,5" />
<rect x="60" y="20" width="40" height="40" fill="#FF69B4" stroke="black" />
<text x="80.0" y="44.0" text-anchor="middle" font-size="20">X</text>
<circle cx="130.0" cy="40.0" r="5" fill="black" />
<line x1="130.0" y1="40.0" x2="130.0" y2="90.0" stroke="black" />
<circle cx="130.0" cy="90.0" r="15" fill="none" stroke="black" />
<line x1="120.0" y1="90.0" x2="140.0" y2="90.0" stroke="black" />
<line x1="130.0" y1="80.0" x2="130.0" y2="100.0" stroke="black" />
<rect x="160" y="20" width="40" height="40" fill="#FFA500" stroke="black" />
<text x="180.0" y="44.0" text-anchor="middle" font-size="20">M</text>
<line x1="180.0" y1="60" x2="180.0" y2="140.0" stroke="black" />
<rect x="210" y="70" width="40" height="40" fill="#FFA500" stroke="black" />
<text x="230.0" y="94.0" text-anchor="middle" font-size="20">M</text>
<line x1="230.0" y1="110" x2="230.0" y2="190.0" stroke="black" />
</svg>