<svg width="320" height="240" xmlns="http://www.w3.org/2000/svg">
<text x="50" y="44.0" text-anchor="end" font-size="16" fill="black">q0:</text>
<text x="50" y="94.0" text-anchor="end" font-size="16" fill="black">q1:</text>
<text x="50" y="144.0" text-anchor="end" font-size="16" fill="black">c0:</text>
<text x="50" y="194.0" text-anchor="end" font-size="16" fill="black">c1:</text>
<line x1="60" y1="40.0" x2="260" y2="40.0" stroke="black" stroke-width="1" />
<line x1="60" y1="90.0" x2="260" y2="90.0" stroke="black" stroke-width="1" />
<line x1="60" y1="140.0" x2="260" y2="140.0" stroke="black" stroke-dasharray="5,5" />
<line x1="60" y1="190.0" x2="260" y2="190.0" stroke="black" stroke-dasharray="5,5" />
<rect x="60" y="20" width="40" height="40" fill="#ADFF2F" stroke="black" />
<text x="80.0" y="44.0" text-anchor="middle" font-size="20">H</text>
<circle cx="130.0" cy="40.0" r="5" fill="black" />
<line x1="130.0" y1="40.0" x2="130.0" y2="90.0" stroke="black" stroke-width="1" />
<circle cx="130.0" cy="90.0" r="15" fill="none" stroke="black" />
<line x1="119.95" y1="90.0" x2="140.05" y2="90.0" stroke="black" />
<line x1="130.0" y1="79.95" x2="130.0" y2="100.05" stroke="black" />
<rect x="160" y="20" width="40" height="40" fill="#FFA500" stroke="black" />
<text x="180.0" y="44.0" text-anchor="middle" font-size="20">M</text>
<path d="M 168.0 40.0 A 12 12 0 0 1 192.0 40.0" stroke="black" fill="none" />
<line x1="187.0" y1="35.0" x2="192.0" y2="40.0" stroke="black" />
<line x1="187.0" y1="45.0" x2="192.0" y2="40.0" stroke="black" />
<line x1="180.0" y1="60" x2="180.0" y2="140.0" stroke="black" stroke-width="1" />
<rect x="210" y="70" width="40" height="40" fill="#FFA500" stroke="black" />
<text x="230.0" y="94.0" text-anchor="middle" font-size="20">M</text>
<path d="M 218.0 90.0 A 12 12 0 0 1 242.0 90.0" stroke="black" fill="none" />
<line x1="237.0" y1="85.0" x2="242.0" y2="90.0" stroke="black" />
<line x1="237.0" y1="95.0" x2="242.0" y2="90.0" stroke="black" />
<line x1="230.0" y1="110" x2="230.0" y2="190.0" stroke="black" stroke-width="1" />
</svg>